<svg width="400" height="162" viewBox="0 0 400 162" fill="none" xmlns="http://www.w3.org/2000/svg">
<g opacity="0.08">
<path d="M118.23 120.413C117.522 111.955 117.286 103.027 117.286 83.5256H112.212C111.032 91.6314 109.381 94.3334 96.0472 94.3334H94.0413V0H90.1475L0 114.069V119.121H65.9587V161.765H94.0413V119.238C105.015 119.356 115.398 119.708 118.23 120.413ZM65.9587 94.3334H22.1829L65.9587 38.4147V94.3334Z" fill="#70757E"/>
<path d="M204.956 0C163.658 0 136.637 29.369 136.637 67.4313C136.637 106.081 164.366 131.221 202.36 131.221C243.186 131.221 270.678 101.969 270.678 63.5546C270.678 25.2574 243.422 0 204.956 0ZM202.832 4.34662C219.705 4.34662 234.218 21.1457 234.218 64.2595C234.218 103.497 221.829 126.874 204.484 126.874C187.611 126.874 173.097 109.958 173.097 66.609C173.097 27.4894 185.487 4.34662 202.832 4.34662Z" fill="#70757E"/>
<path d="M400 120.413C399.292 111.955 399.056 103.027 399.056 83.5256H393.982C392.802 91.6314 391.15 94.3334 377.817 94.3334H375.811V0H371.917L281.77 114.069V119.121H347.729V161.765H375.811V119.238C386.785 119.356 397.168 119.708 400 120.413ZM347.729 94.3334H303.953L347.729 38.4147V94.3334Z" fill="#70757E"/>
</g>
</svg>
