<svg width="92" height="20" viewBox="0 0 92 20" fill="none" xmlns="http://www.w3.org/2000/svg">
<g clip-path="url(#clip0)">
<path d="M16.2615 18.6394C15.6609 18.6394 15.4648 18.1859 15.4648 16.9888V6.88049C15.4648 4.28601 15.2278 2.79469 14.141 1.67109C12.9397 0.437181 11.0889 0 8.69459 0C6.18999 0 4.37589 0.527068 3.04801 1.27068C1.83044 1.97753 0.960163 3.01124 0.960163 4.37589C0.960163 6.01021 1.97753 7.24413 3.59142 7.24413C5.42594 7.24413 6.62308 6.12053 6.62308 4.5761C6.62308 3.06844 5.75281 2.10827 4.42492 1.65475C5.09499 1.00102 6.1859 0.747702 7.07661 0.747702C9.27477 0.747702 10.1083 2.1287 10.1083 4.06946V6.97446C10.1083 8.57201 7.96731 9.27886 5.22574 10.3126C1.77732 11.5792 0 13.0868 0 15.7712C0 18.476 1.92441 20 4.70276 20C6.7906 20 8.91522 19.0725 10.1859 16.9888C10.2022 18.5863 11.0398 20 13.761 20C15.6486 20 16.8825 19.5465 18.0061 18.6394L17.6261 18.0061C17.2053 18.333 16.7886 18.6394 16.2615 18.6394ZM10.1083 16.1185C9.32788 17.2257 8.51072 17.6261 7.60368 17.6261C6.27988 17.6261 5.27886 16.7926 5.27886 14.7416C5.27886 12.5107 6.49642 11.2932 7.79979 10.333C9.05414 9.5526 9.76098 9.06231 10.1042 8.49847V16.1185H10.1083Z" fill="#155A51"/>
<path d="M48.5679 16.2983V6.27988C48.5679 3.8284 48.2574 2.39428 47.4239 1.45046C46.6639 0.580184 45.43 0 43.3626 0C40.858 0 38.5495 0.833504 37.189 3.66496C37.0255 2.7048 36.7191 1.99387 36.2451 1.45046C35.4852 0.580184 34.2308 0 32.1798 0C29.7283 0 27.5873 0.996935 26.427 3.46476V0.110317C24.8662 0.473953 23.0684 0.637385 21.001 0.637385C20.2574 0.637385 19.477 0.58427 18.6966 0.510725V1.29111C20.4944 1.29111 21.0746 2.34525 21.0746 4.5761V16.3023C21.0746 18.3698 20.4208 18.9704 18.6966 18.9704V19.7508C19.6772 19.714 21.9081 19.6037 23.8161 19.6037C25.5403 19.6037 27.3749 19.714 28.2084 19.7508V18.9704C26.8846 18.9704 26.431 18.3698 26.431 16.3023V5.93667C26.431 3.48519 28.0449 1.63432 30.0429 1.63432C31.7303 1.63432 32.0409 2.88866 32.0409 4.73953V16.3023C32.0409 18.3698 31.5506 18.9704 30.2431 18.9704V19.7508C31.1134 19.714 33.0378 19.6037 34.8519 19.6037C36.5761 19.6037 38.6435 19.714 39.5342 19.7508V18.9704C37.9367 18.9704 37.3932 18.3698 37.3932 16.3023V6.27988L37.3769 5.51583C37.6629 3.3381 39.1869 1.63432 41.001 1.63432C42.8519 1.63432 43.2155 2.88866 43.2155 4.73953V16.3023C43.2155 18.3698 42.7456 18.9704 41.4382 18.9704V19.7508C42.3085 19.714 44.2329 19.6037 46.047 19.6037C47.8611 19.6037 50.002 19.714 50.9459 19.7508V18.9704C49.2216 18.9663 48.5679 18.3698 48.5679 16.2983Z" fill="#155A51"/>
<path d="M67.8978 18.6394C67.2972 18.6394 67.1011 18.1859 67.1011 16.9888V6.88049C67.1011 4.28601 66.8641 2.79469 65.7773 1.67109C64.5802 0.437181 62.7252 0 60.3309 0C57.8263 0 56.0122 0.527068 54.6844 1.27068C53.4668 1.97753 52.5965 3.01124 52.5965 4.37589C52.5965 6.01021 53.6139 7.24413 55.2278 7.24413C57.0623 7.24413 58.2594 6.12053 58.2594 4.5761C58.2594 3.06844 57.3892 2.10827 56.0613 1.65475C56.7314 1.00102 57.8223 0.747702 58.713 0.747702C60.9111 0.747702 61.7446 2.1287 61.7446 4.06946V6.97446C61.7446 8.57201 59.6037 9.27886 56.8621 10.3126C53.4137 11.5832 51.6364 13.0909 51.6364 15.7753C51.6364 18.4801 53.5608 20.0041 56.3391 20.0041C58.427 20.0041 60.5516 19.0766 61.8223 16.9928C61.8386 18.5904 62.6762 20.0041 65.3973 20.0041C67.285 20.0041 68.5189 19.5506 69.6425 18.6435L69.2625 18.0102C68.8417 18.333 68.4249 18.6394 67.8978 18.6394ZM61.7487 16.1185C60.9683 17.2257 60.1512 17.6261 59.2441 17.6261C57.9203 17.6261 56.9193 16.7926 56.9193 14.7416C56.9193 12.5107 58.1369 11.2932 59.4402 10.333C60.6946 9.5526 61.4014 9.06231 61.7446 8.49847V16.1185H61.7487Z" fill="#155A51"/>
<path d="M91.5505 18.0061C91.1338 18.333 90.717 18.6394 90.19 18.6394C89.5894 18.6394 89.3932 18.1859 89.3932 16.9888V15.3258V6.27988C89.3932 3.75894 89.05 2.39428 88.2329 1.45046C87.4647 0.580184 86.2513 0 84.1266 0C81.5117 0 79.2972 0.94382 78.0633 3.46476V0.110317C76.5025 0.473953 74.7048 0.637385 72.6374 0.637385C71.8938 0.637385 71.1134 0.58427 70.333 0.510725V1.29111C72.1307 1.29111 72.7109 2.34525 72.7109 4.5761V16.3023C72.7109 18.3698 72.0572 18.9704 70.333 18.9704V19.7508C71.3136 19.714 73.5444 19.6037 75.4525 19.6037C77.2666 19.6037 79.191 19.714 80.0613 19.7508V18.9704C78.5904 18.9704 78.0633 18.3698 78.0633 16.3023V5.93667C78.0633 3.48519 79.6609 1.63432 81.7487 1.63432C83.5996 1.63432 84.0368 2.88866 84.0368 4.73953V15.3299V16.1185V16.9888C84.0531 18.5863 84.9642 20 87.6854 20C89.573 20 90.8069 19.5465 91.9305 18.6394L91.5505 18.0061Z" fill="#155A51"/>
<path d="M5.27606 18.5109C5.26136 18.4864 5.27116 18.5011 5.27606 18.5109V18.5109Z" fill="#155A51"/>
<path d="M5.27477 18.5087C5.27967 18.5185 5.28947 18.5283 5.27477 18.5087V18.5087Z" fill="#155A51"/>
</g>
<defs>
<clipPath id="clip0">
<rect width="91.9305" height="20" fill="white"/>
</clipPath>
</defs>
</svg>
