<svg width="96" height="96" viewBox="0 0 96 96" fill="none" xmlns="http://www.w3.org/2000/svg">
<circle cx="48" cy="48" r="48" fill="#F8EBC1"/>
<path d="M66.375 60.75H65.7875C66.1112 59.3838 66.2812 57.97 66.2812 56.5312C66.2812 46.4513 58.08 38.25 48 38.25C37.92 38.25 29.7188 46.4513 29.7188 56.5312C29.7188 57.97 29.8888 59.3838 30.2112 60.75H29.625C26.5238 60.75 24 63.2738 24 66.375C24 69.4762 26.5238 72 29.625 72H66.375C69.4762 72 72 69.4762 72 66.375C72 63.2738 69.4762 60.75 66.375 60.75ZM48 41.0625C56.5288 41.0625 63.4688 48.0025 63.4688 56.5312C63.4688 61.585 61.0187 66.285 56.895 69.1875H39.105C34.9812 66.285 32.5312 61.585 32.5312 56.5312C32.5312 48.0025 39.4712 41.0625 48 41.0625ZM26.8125 66.375C26.8125 64.8237 28.0738 63.5625 29.625 63.5625H31.1225C31.9875 65.64 33.2325 67.5487 34.8062 69.1875H29.625C28.0738 69.1875 26.8125 67.9263 26.8125 66.375ZM66.375 69.1875H61.1937C62.7675 67.5487 64.0125 65.64 64.8775 63.5625H66.375C67.9263 63.5625 69.1875 64.8237 69.1875 66.375C69.1875 67.9263 67.9263 69.1875 66.375 69.1875Z" fill="#239A8B"/>
<path d="M48 60.75C47.225 60.75 46.5938 60.1187 46.5938 59.3438C46.5938 58.5675 45.9637 57.9375 45.1875 57.9375C44.41 57.9375 43.7812 58.5675 43.7812 59.3438C43.7812 61.1775 44.9575 62.74 46.5938 63.3213V64.9688C46.5938 65.745 47.2225 66.375 48 66.375C48.7762 66.375 49.4062 65.745 49.4062 64.9688V63.3213C51.0425 62.7413 52.2188 61.1775 52.2188 59.3438C52.2188 57.0175 50.3263 55.125 48 55.125C47.225 55.125 46.5938 54.4938 46.5938 53.7188C46.5938 52.9437 47.225 52.3125 48 52.3125C48.775 52.3125 49.4062 52.9437 49.4062 53.7188C49.4062 54.495 50.0363 55.125 50.8125 55.125C51.59 55.125 52.2188 54.495 52.2188 53.7188C52.2188 51.885 51.0425 50.3225 49.4062 49.7412V48.0938C49.4062 47.3175 48.7775 46.6875 48 46.6875C47.2225 46.6875 46.5938 47.3163 46.5938 48.0938V49.7412C44.9575 50.3212 43.7812 51.885 43.7812 53.7188C43.7812 56.045 45.6737 57.9375 48 57.9375C48.775 57.9375 49.4062 58.5688 49.4062 59.3438C49.4062 60.1187 48.775 60.75 48 60.75Z" fill="#239A8B"/>
<path d="M48 35.25C48.7762 35.25 49.4062 34.62 49.4062 33.8438V28.2188C49.4062 27.4425 48.7775 26.8125 48 26.8125C47.2225 26.8125 46.5938 27.4425 46.5938 28.2188V33.8438C46.5938 34.62 47.2225 35.25 48 35.25Z" fill="#239A8B"/>
<path d="M53.625 32.4375C54.4012 32.4375 55.0312 31.8075 55.0312 31.0312V25.4062C55.0312 24.63 54.4012 24 53.625 24C52.8487 24 52.2188 24.63 52.2188 25.4062V31.0312C52.2188 31.8075 52.8475 32.4375 53.625 32.4375Z" fill="#239A8B"/>
<path d="M42.375 32.4375C43.1512 32.4375 43.7812 31.8075 43.7812 31.0312V25.4062C43.7812 24.63 43.1512 24 42.375 24C41.5987 24 40.9688 24.63 40.9688 25.4062V31.0312C40.9688 31.8075 41.5987 32.4375 42.375 32.4375Z" fill="#239A8B"/>
</svg>
