<svg width="96" height="96" viewBox="0 0 96 96" fill="none" xmlns="http://www.w3.org/2000/svg">
<circle cx="48" cy="48" r="48" fill="#F8EBC1"/>
<path d="M70.5938 59.75H69.0938V28.8125H70.5938C71.37 28.8125 72 28.1825 72 27.4062C72 26.63 71.37 26 70.5938 26H25.4062C24.63 26 24 26.63 24 27.4062C24 28.1825 24.63 28.8125 25.4062 28.8125H26.9062V59.75H25.4062C24.63 59.75 24 60.38 24 61.1562C24 61.9325 24.63 62.5625 25.4062 62.5625H37.7688C37.7463 62.6512 35.3875 72.2487 35.385 72.2575C35.1675 73.1425 35.8375 74 36.7513 74C37.3825 74 37.9575 73.5713 38.115 72.9287L39.2812 68.1862H56.7175L57.8838 72.9287C58.0413 73.57 58.6162 74 59.2487 74C60.1637 74 60.8325 73.1425 60.615 72.2575C60.08 70.0825 58.77 64.7537 58.2313 62.5625H70.5938C71.37 62.5625 72 61.9325 72 61.1562C72 60.38 71.37 59.75 70.5938 59.75ZM29.7188 28.8125H66.2812V59.75H29.7188V28.8125ZM56.0262 65.375H39.9725L40.665 62.5625H55.335L56.0262 65.375Z" fill="#239A8B"/>
<path d="M62.0626 34.4375H56.4376C55.6601 34.4375 55.0313 35.0675 55.0313 35.8438C55.0313 36.62 55.6601 37.25 56.4376 37.25H58.6676L48.0001 47.9175L43.3701 43.2862C42.8201 42.7375 41.9301 42.7375 41.3813 43.2862L32.9439 51.7237C32.3951 52.2737 32.3951 53.1637 32.9439 53.7125C33.4926 54.2625 34.3838 54.2625 34.9326 53.7125L42.3751 46.27L47.0063 50.9013C47.5551 51.4513 48.4451 51.4513 48.9951 50.9013L60.6563 39.24V41.47C60.6563 42.2463 61.2863 42.8762 62.0626 42.8762C62.8388 42.8762 63.4688 42.2463 63.4688 41.47V35.845C63.4688 35.065 62.8326 34.4375 62.0626 34.4375Z" fill="#239A8B"/>
</svg>
