<svg width="96" height="96" viewBox="0 0 96 96" fill="none" xmlns="http://www.w3.org/2000/svg">
<circle cx="48" cy="48" r="48" fill="#F8EBC1"/>
<path d="M48 24C41.1413 24 34.4175 26.9975 29.7188 32.5925V28.3125C29.7188 27.5363 29.0887 26.9062 28.3125 26.9062C27.535 26.9062 26.9062 27.5363 26.9062 28.3125V36.75C26.9062 37.5262 27.535 38.1562 28.3125 38.1562H36.75C37.5262 38.1562 38.1562 37.5262 38.1562 36.75C38.1562 35.9738 37.5262 35.3438 36.75 35.3438H31.1213C35.1 30.0275 41.3638 26.8125 48 26.8125C59.6825 26.8125 69.1875 36.3175 69.1875 48C69.1875 59.6825 59.6825 69.1875 48 69.1875C36.3175 69.1875 26.8125 59.64 26.8125 47.9062C26.8125 46.34 27.0387 44.79 27.5712 42.725C27.765 41.9725 27.3125 41.2063 26.56 41.0125C25.8075 40.8188 25.0412 41.2712 24.8475 42.0238C24.4525 43.5562 24 45.61 24 47.9062C24 61.1138 34.7775 72 48 72C61.215 72 72 61.2137 72 48C72 34.785 61.2137 24 48 24Z" fill="#239A8B"/>
<path d="M39.5625 60.6562C40.3387 60.6562 40.9688 60.0262 40.9688 59.25V50.8125C40.9688 50.0362 40.3387 49.4062 39.5625 49.4062H33.9375C33.1612 49.4062 32.5312 50.0362 32.5312 50.8125V59.25C32.5312 60.0262 33.1612 60.6562 33.9375 60.6562H39.5625ZM35.3438 52.2188H38.1562V57.8438H35.3438V52.2188Z" fill="#239A8B"/>
<path d="M50.8125 60.6562C51.59 60.6562 52.2188 60.0263 52.2188 59.25V45.1875C52.2188 44.4112 51.59 43.7812 50.8125 43.7812H45.1875C44.41 43.7812 43.7812 44.4112 43.7812 45.1875V59.25C43.7812 60.0263 44.41 60.6562 45.1875 60.6562H50.8125ZM46.5938 46.5938H49.4062V57.8438H46.5938V46.5938Z" fill="#239A8B"/>
<path d="M62.0625 60.6562C62.8387 60.6562 63.4688 60.0263 63.4688 59.25V36.75C63.4688 35.9737 62.8387 35.3438 62.0625 35.3438H56.4375C55.66 35.3438 55.0312 35.9737 55.0312 36.75V59.25C55.0312 60.0263 55.66 60.6562 56.4375 60.6562H62.0625ZM57.8438 38.1562H60.6562V57.8438H57.8438V38.1562Z" fill="#239A8B"/>
</svg>
