<svg width="32" height="32" viewBox="0 0 32 32" fill="none" xmlns="http://www.w3.org/2000/svg">
<g clip-path="url(#clip0)">
<path d="M16.0053 7.78418C11.468 7.78418 7.79468 11.4615 7.79468 15.9948C7.79468 20.5322 11.472 24.2055 16.0053 24.2055C20.5427 24.2055 24.216 20.5282 24.216 15.9948C24.216 11.4575 20.5387 7.78418 16.0053 7.78418ZM16.0053 21.3242C13.06 21.3242 10.676 18.9388 10.676 15.9948C10.676 13.0508 13.0613 10.6655 16.0053 10.6655C18.9493 10.6655 21.3347 13.0508 21.3347 15.9948C21.336 18.9388 18.9507 21.3242 16.0053 21.3242Z" fill="#239A8B"/>
<path d="M22.5971 0.101492C19.6531 -0.0358412 12.3611 -0.0291746 9.41448 0.101492C6.82515 0.222825 4.54115 0.848158 2.69981 2.68949C-0.377519 5.76683 0.0158147 9.91349 0.0158147 15.9948C0.0158147 22.2188 -0.330852 26.2695 2.69981 29.3002C5.78915 32.3882 9.99581 31.9842 16.0051 31.9842C22.1705 31.9842 24.2985 31.9882 26.4785 31.1442C29.4425 29.9935 31.6798 27.3442 31.8985 22.5855C32.0371 19.6402 32.0291 12.3495 31.8985 9.40283C31.6345 3.78549 28.6198 0.378825 22.5971 0.101492ZM27.2571 27.2642C25.2398 29.2815 22.4411 29.1015 15.9665 29.1015C9.29982 29.1015 6.62648 29.2002 4.67581 27.2442C2.42915 25.0082 2.83581 21.4175 2.83581 15.9735C2.83581 8.60682 2.07981 3.30149 9.47315 2.92283C11.1718 2.86282 11.6718 2.84283 15.9478 2.84283L16.0078 2.88283C23.1131 2.88283 28.6878 2.13882 29.0225 9.53082C29.0985 11.2175 29.1158 11.7242 29.1158 15.9935C29.1145 22.5828 29.2398 25.2722 27.2571 27.2642Z" fill="#239A8B"/>
<path d="M24.5412 9.37883C25.6009 9.37883 26.4599 8.51982 26.4599 7.46017C26.4599 6.40052 25.6009 5.5415 24.5412 5.5415C23.4816 5.5415 22.6226 6.40052 22.6226 7.46017C22.6226 8.51982 23.4816 9.37883 24.5412 9.37883Z" fill="#239A8B"/>
</g>
<defs>
<clipPath id="clip0">
<rect width="32" height="32" fill="white"/>
</clipPath>
</defs>
</svg>
