<svg width="32" height="32" viewBox="0 0 32 32" fill="none" xmlns="http://www.w3.org/2000/svg">
<g clip-path="url(#clip0)">
<path d="M31.9919 32V31.9986H31.9999V20.2626C31.9999 14.5213 30.7639 10.0986 24.0519 10.0986C20.8253 10.0986 18.6599 11.8693 17.7759 13.548H17.6826V10.6346H11.3186V31.9986H17.9453V21.42C17.9453 18.6346 18.4733 15.9413 21.9226 15.9413C25.3213 15.9413 25.3719 19.12 25.3719 21.5986V32H31.9919Z" fill="#239A8B"/>
<path d="M0.528076 10.6362H7.16274V32.0002H0.528076V10.6362Z" fill="#239A8B"/>
<path d="M3.84267 0C1.72133 0 0 1.72133 0 3.84267C0 5.964 1.72133 7.72133 3.84267 7.72133C5.964 7.72133 7.68533 5.964 7.68533 3.84267C7.684 1.72133 5.96267 0 3.84267 0V0Z" fill="#239A8B"/>
</g>
<defs>
<clipPath id="clip0">
<rect width="32" height="32" fill="white"/>
</clipPath>
</defs>
</svg>
