<svg width="159" height="60" viewBox="0 0 159 60" fill="none" xmlns="http://www.w3.org/2000/svg">
<path d="M28.0479 32.1494C27.012 32.1494 26.6737 31.3672 26.6737 29.3023V11.8675C26.6737 7.39253 26.265 4.8203 24.3904 2.88231C22.3185 0.754052 19.1261 0 14.9965 0C10.6765 0 7.54757 0.909091 5.25722 2.19168C3.15715 3.41085 1.6561 5.1938 1.6561 7.54757C1.6561 10.3665 3.41085 12.4947 6.1945 12.4947C9.3587 12.4947 11.4235 10.5567 11.4235 7.89288C11.4235 5.29246 9.92248 3.63636 7.63214 2.85412C8.78788 1.72657 10.6695 1.28964 12.2058 1.28964C15.9972 1.28964 17.4348 3.6716 17.4348 7.01903V12.0296C17.4348 14.7851 13.7421 16.0042 9.01339 17.7872C3.06554 19.9718 0 22.5722 0 27.2023C0 31.8675 3.31924 34.4961 8.11135 34.4961C11.7125 34.4961 15.377 32.8964 17.5687 29.3023C17.5969 32.0578 19.0416 34.4961 23.735 34.4961C26.9908 34.4961 29.1191 33.7139 31.0571 32.1494L30.4017 31.0571C29.6758 31.6209 28.957 32.1494 28.0479 32.1494ZM17.4348 27.8013C16.0888 29.7111 14.6794 30.4017 13.1149 30.4017C10.8316 30.4017 9.105 28.9641 9.105 25.4264C9.105 21.5786 11.2051 19.4785 13.4531 17.8224C15.6166 16.4764 16.8358 15.6307 17.4278 14.6582V27.8013H17.4348Z" fill="#F8EBC1"/>
<path d="M83.7703 28.1113V10.8316C83.7703 6.60324 83.2347 4.12967 81.797 2.50176C80.4862 1.0007 78.358 0 74.7921 0C70.4722 0 66.4905 1.43763 64.1438 6.32135C63.8619 4.66526 63.3333 3.43904 62.5159 2.50176C61.2051 1.0007 59.0416 0 55.5039 0C51.2755 0 47.5828 1.71952 45.5814 5.97604V0.190275C42.8894 0.817477 39.7886 1.09937 36.2227 1.09937C34.9401 1.09937 33.5941 1.00775 32.2481 0.880902V2.22692C35.3488 2.22692 36.3495 4.0451 36.3495 7.89288V28.1184C36.3495 31.6843 35.222 32.7202 32.2481 32.7202V34.0662C33.9394 34.0028 37.7872 33.8125 41.0782 33.8125C44.0521 33.8125 47.2163 34.0028 48.654 34.0662V32.7202C46.3707 32.7202 45.5884 31.6843 45.5884 28.1184V10.2396C45.5884 6.01127 48.3721 2.81889 51.8182 2.81889C54.7287 2.81889 55.2643 4.98238 55.2643 8.17477V28.1184C55.2643 31.6843 54.4186 32.7202 52.1635 32.7202V34.0662C53.6645 34.0028 56.9838 33.8125 60.1128 33.8125C63.0867 33.8125 66.6526 34.0028 68.1889 34.0662V32.7202C65.4334 32.7202 64.4961 31.6843 64.4961 28.1184V10.8316L64.4679 9.51374C64.9612 5.75758 67.5898 2.81889 70.7188 2.81889C73.9112 2.81889 74.5384 4.98238 74.5384 8.17477V28.1184C74.5384 31.6843 73.728 32.7202 71.4729 32.7202V34.0662C72.9739 34.0028 76.2932 33.8125 79.4221 33.8125C82.5511 33.8125 86.2438 34.0028 87.8717 34.0662V32.7202C84.8978 32.7132 83.7703 31.6843 83.7703 28.1113Z" fill="#F8EBC1"/>
<path d="M117.111 32.1494C116.075 32.1494 115.736 31.3672 115.736 29.3023V11.8675C115.736 7.39253 115.328 4.8203 113.453 2.88231C111.388 0.754052 108.189 0 104.059 0C99.7392 0 96.6103 0.909091 94.3199 2.19168C92.2199 3.41085 90.7188 5.1938 90.7188 7.54757C90.7188 10.3665 92.4736 12.4947 95.2572 12.4947C98.4214 12.4947 100.486 10.5567 100.486 7.89288C100.486 5.29246 98.9852 3.63636 96.6949 2.85412C97.8506 1.72657 99.7322 1.28964 101.268 1.28964C105.06 1.28964 106.498 3.6716 106.498 7.01903V12.0296C106.498 14.7851 102.805 16.0042 98.0761 17.7872C92.1283 19.9789 89.0627 22.5793 89.0627 27.2093C89.0627 31.8746 92.382 34.5032 97.1741 34.5032C100.775 34.5032 104.44 32.9035 106.631 29.3094C106.66 32.0648 108.104 34.5032 112.798 34.5032C116.054 34.5032 118.182 33.7209 120.12 32.1564L119.464 31.0641C118.739 31.6209 118.02 32.1494 117.111 32.1494ZM106.505 27.8013C105.159 29.7111 103.749 30.4017 102.185 30.4017C99.9013 30.4017 98.1748 28.9641 98.1748 25.4264C98.1748 21.5786 100.275 19.4785 102.523 17.8224C104.686 16.4764 105.906 15.6307 106.498 14.6582V27.8013H106.505Z" fill="#F8EBC1"/>
<path d="M157.907 31.0571C157.188 31.6209 156.469 32.1494 155.56 32.1494C154.524 32.1494 154.186 31.3672 154.186 29.3023V26.4341V10.8316C154.186 6.48344 153.594 4.12967 152.185 2.50176C150.86 1.0007 148.767 0 145.102 0C140.592 0 136.772 1.62791 134.644 5.97604V0.190275C131.952 0.817477 128.851 1.09937 125.285 1.09937C124.003 1.09937 122.657 1.00775 121.311 0.880902V2.22692C124.412 2.22692 125.412 4.0451 125.412 7.89288V28.1184C125.412 31.6843 124.285 32.7202 121.311 32.7202V34.0662C123.002 34.0028 126.85 33.8125 130.141 33.8125C133.27 33.8125 136.589 34.0028 138.09 34.0662V32.7202C135.553 32.7202 134.644 31.6843 134.644 28.1184V10.2396C134.644 6.01128 137.4 2.81889 141.001 2.81889C144.193 2.81889 144.947 4.98238 144.947 8.17477V26.4412V27.8013V29.3023C144.975 32.0578 146.547 34.4961 151.24 34.4961C154.496 34.4961 156.624 33.7139 158.562 32.1494L157.907 31.0571Z" fill="#F8EBC1"/>
<path d="M9.09796 31.9241C9.07682 31.8888 9.09091 31.91 9.09796 31.9241V31.9241Z" fill="#F8EBC1"/>
<path d="M9.09796 31.9238C9.10501 31.9379 9.1191 31.952 9.09796 31.9238V31.9238Z" fill="#F8EBC1"/>
<g opacity="0.75">
<path d="M4.13672 60.0002C3.00211 60.0002 2.06483 59.7112 1.31783 59.1404C0.563777 58.5696 0.12685 57.7944 0 56.8148H1.642C1.74066 57.3081 2.00846 57.738 2.43129 58.1045C2.85412 58.4639 3.43199 58.6471 4.15786 58.6471C4.83439 58.6471 5.3277 58.5062 5.64482 58.2172C5.96194 57.9283 6.12403 57.59 6.12403 57.1954C6.12403 56.6246 5.91966 56.244 5.50388 56.0537C5.08809 55.8635 4.51022 55.6943 3.75617 55.5393C3.24877 55.4406 2.74137 55.2926 2.23397 55.1024C1.72657 54.9121 1.29669 54.6443 0.958421 54.2919C0.613108 53.9396 0.443975 53.4815 0.443975 52.9107C0.443975 52.0862 0.754052 51.4096 1.36716 50.8811C1.98027 50.3525 2.81889 50.0918 3.87597 50.0918C4.87667 50.0918 5.7012 50.3455 6.34249 50.8458C6.98379 51.3462 7.35729 52.065 7.45595 52.9882H5.87033C5.80691 52.5019 5.60254 52.1284 5.25018 51.8536C4.89781 51.5788 4.4327 51.4449 3.84778 51.4449C3.27696 51.4449 2.83298 51.5647 2.5229 51.8043C2.21283 52.0439 2.05779 52.361 2.05779 52.7556C2.05779 53.1362 2.25511 53.4392 2.6568 53.6506C3.05849 53.8691 3.60113 54.0523 4.28471 54.2003C4.86963 54.3272 5.42636 54.4822 5.9549 54.6654C6.48344 54.8487 6.91332 55.1235 7.25159 55.4829C7.58985 55.8423 7.75898 56.3709 7.75898 57.0544C7.77308 57.9072 7.44891 58.6119 6.79352 59.1616C6.14517 59.7253 5.25722 60.0002 4.13672 60.0002Z" fill="white"/>
<path d="M15.1022 60.0001C14.3129 60.0001 13.6575 59.8662 13.136 59.5984C12.6145 59.3306 12.2269 58.9783 11.9732 58.5273C11.7195 58.0833 11.5927 57.597 11.5927 57.0755C11.5927 56.1101 11.9591 55.3631 12.6991 54.8486C13.439 54.3271 14.4397 54.0664 15.7082 54.0664H18.2593V53.9536C18.2593 53.1291 18.0409 52.5019 17.611 52.079C17.1811 51.6562 16.6032 51.4378 15.8774 51.4378C15.2572 51.4378 14.7146 51.5928 14.2636 51.9029C13.8125 52.2129 13.5307 52.671 13.4179 53.263H11.7759C11.8393 52.5794 12.0719 52.0015 12.4736 51.5294C12.8753 51.0572 13.3756 50.6978 13.9676 50.4511C14.5666 50.2045 15.2008 50.0776 15.8774 50.0776C17.2023 50.0776 18.1959 50.43 18.8583 51.1347C19.5278 51.8394 19.859 52.7767 19.859 53.9466V59.7605H18.4285L18.3298 58.0621C18.062 58.5977 17.6744 59.0487 17.16 59.4222C16.6526 59.8098 15.9619 60.0001 15.1022 60.0001ZM15.3488 58.6471C15.9619 58.6471 16.4834 58.485 16.9204 58.1678C17.3573 57.8507 17.6956 57.4349 17.9211 56.9275C18.1466 56.4201 18.2664 55.8845 18.2664 55.3278V55.3067H15.8421C14.9049 55.3067 14.2354 55.4688 13.8478 55.7929C13.4602 56.1171 13.2629 56.5188 13.2629 57.0051C13.2629 57.4984 13.4461 57.9001 13.8055 58.196C14.1719 58.492 14.6864 58.6471 15.3488 58.6471Z" fill="white"/>
<path d="M26.5398 59.7674L22.9528 50.3101H24.63L27.4701 58.2241L30.3312 50.3101H31.9732L28.3862 59.7674H26.5398Z" fill="white"/>
<path d="M39.4292 59.9999C38.5271 59.9999 37.7238 59.7955 37.0261 59.3798C36.3284 58.964 35.7787 58.3931 35.377 57.6532C34.9753 56.9132 34.778 56.0464 34.778 55.0387C34.778 54.045 34.9753 53.1782 35.37 52.4382C35.7646 51.6983 36.3143 51.1134 37.019 50.7046C37.7238 50.2888 38.5412 50.0845 39.4715 50.0845C40.3876 50.0845 41.1769 50.2888 41.8464 50.7046C42.5159 51.1204 43.0233 51.6631 43.3827 52.3325C43.735 53.0091 43.9183 53.7279 43.9183 54.5031C43.9183 54.644 43.9183 54.785 43.9112 54.9259C43.9042 55.0669 43.9042 55.2219 43.9042 55.4051H36.3566C36.3918 56.131 36.561 56.73 36.864 57.2092C37.16 57.6884 37.5405 58.0478 37.9915 58.2874C38.4426 58.527 38.9218 58.6469 39.4292 58.6469C40.0916 58.6469 40.6413 58.4918 41.0853 58.1888C41.5292 57.8857 41.8534 57.47 42.0578 56.9485H43.6434C43.3897 57.8223 42.9035 58.5552 42.1846 59.1331C41.4658 59.711 40.5426 59.9999 39.4292 59.9999ZM39.4292 51.4375C38.6681 51.4375 37.9915 51.6701 37.3996 52.1352C36.8076 52.6003 36.4693 53.2769 36.3777 54.1648H42.3256C42.2903 53.3121 41.9944 52.6426 41.4517 52.1634C40.9091 51.6842 40.2255 51.4375 39.4292 51.4375Z" fill="white"/>
<path d="M52.2199 60.0001C51.2755 60.0001 50.4581 59.7816 49.7533 59.3517C49.0486 58.9219 48.4989 58.3299 48.1113 57.5758C47.7237 56.8288 47.5264 55.9761 47.5264 55.0247C47.5264 54.0734 47.7237 53.2207 48.1184 52.4807C48.513 51.7407 49.0557 51.1558 49.7604 50.7259C50.4581 50.3031 51.2826 50.0846 52.241 50.0846C53.0162 50.0846 53.6998 50.2467 54.2988 50.5639C54.8978 50.881 55.3629 51.325 55.6871 51.8958V46.0396H57.2868V59.7675H55.8351L55.6801 58.203C55.377 58.6611 54.9401 59.0769 54.3622 59.4433C53.7985 59.8168 53.0796 60.0001 52.2199 60.0001ZM52.389 58.6047C53.0233 58.6047 53.587 58.4567 54.0733 58.1537C54.5596 57.8577 54.9471 57.4419 55.2149 56.9063C55.4898 56.3708 55.6237 55.7506 55.6237 55.0388C55.6237 54.3271 55.4898 53.7069 55.2149 53.1713C54.9401 52.6357 54.5596 52.22 54.0733 51.924C53.587 51.628 53.0233 51.4729 52.389 51.4729C51.7689 51.4729 51.2121 51.6209 50.7188 51.924C50.2326 52.22 49.845 52.6357 49.5772 53.1713C49.3094 53.7069 49.1684 54.3271 49.1684 55.0388C49.1684 55.7506 49.3023 56.3708 49.5772 56.9063C49.852 57.4419 50.2326 57.8577 50.7188 58.1537C51.2121 58.4567 51.7689 58.6047 52.389 58.6047Z" fill="white"/>
<path d="M70.8457 55.7086C70.4369 55.7086 70.0634 55.6099 69.7111 55.4055C69.3587 55.2012 69.0839 54.9263 68.8795 54.574C68.6751 54.2216 68.5765 53.841 68.5765 53.4182C68.5765 52.9883 68.6751 52.5937 68.8795 52.2484C69.0839 51.896 69.3587 51.6212 69.7111 51.4168C70.0634 51.2124 70.4369 51.1138 70.8457 51.1138C71.2755 51.1138 71.6702 51.2124 72.0155 51.4168C72.3679 51.6212 72.6427 51.896 72.8471 52.2484C73.0514 52.6007 73.1501 52.9883 73.1501 53.4182C73.1501 53.841 73.0514 54.2216 72.8471 54.574C72.6427 54.9263 72.3679 55.2012 72.0155 55.4055C71.6702 55.6099 71.2755 55.7086 70.8457 55.7086Z" fill="white"/>
<path d="M85.4264 48.2169C85.1092 48.2169 84.8414 48.1112 84.6371 47.8998C84.4257 47.6884 84.3199 47.4276 84.3199 47.1105C84.3199 46.8075 84.4257 46.5538 84.6371 46.3494C84.8485 46.145 85.1092 46.0464 85.4264 46.0464C85.7294 46.0464 85.9901 46.145 86.2086 46.3494C86.4271 46.5538 86.5328 46.8075 86.5328 47.1105C86.5328 47.4276 86.4271 47.6954 86.2086 47.8998C85.9972 48.1112 85.7364 48.2169 85.4264 48.2169ZM84.63 59.7673V50.31H86.2297V59.7673H84.63Z" fill="white"/>
<path d="M90.9232 59.7674V50.31H92.3749L92.4736 52.0084C92.7766 51.4094 93.2206 50.9442 93.7914 50.5989C94.3622 50.2536 95.0106 50.0845 95.7364 50.0845C96.8569 50.0845 97.7449 50.4227 98.4144 51.1063C99.0839 51.7829 99.4151 52.8329 99.4151 54.2423V59.7744H97.8154V54.4185C97.8154 52.4453 97.0049 51.4657 95.377 51.4657C94.5666 51.4657 93.883 51.7617 93.3474 52.3537C92.8048 52.9456 92.537 53.7843 92.537 54.8766V59.7744H90.9232V59.7674Z" fill="white"/>
<path d="M107.357 60.0002C106.223 60.0002 105.285 59.7112 104.538 59.1404C103.791 58.5696 103.347 57.7944 103.221 56.8148H104.863C104.961 57.3081 105.229 57.738 105.652 58.1045C106.075 58.4639 106.653 58.6471 107.378 58.6471C108.055 58.6471 108.548 58.5062 108.865 58.2172C109.183 57.9283 109.345 57.59 109.345 57.1954C109.345 56.6246 109.14 56.244 108.724 56.0537C108.309 55.8635 107.731 55.6943 106.977 55.5393C106.469 55.4406 105.962 55.2926 105.455 55.1024C104.947 54.9121 104.517 54.6443 104.179 54.2919C103.834 53.9396 103.665 53.4815 103.665 52.9107C103.665 52.0862 103.975 51.4096 104.588 50.8811C105.201 50.3525 106.039 50.0918 107.097 50.0918C108.097 50.0918 108.922 50.3455 109.563 50.8458C110.204 51.3462 110.578 52.065 110.677 52.9882H109.091C109.027 52.5019 108.823 52.1284 108.471 51.8536C108.118 51.5788 107.653 51.4449 107.068 51.4449C106.498 51.4449 106.054 51.5647 105.743 51.8043C105.433 52.0439 105.278 52.361 105.278 52.7556C105.278 53.1362 105.476 53.4392 105.877 53.6506C106.279 53.8691 106.822 54.0523 107.505 54.2003C108.09 54.3272 108.647 54.4822 109.175 54.6654C109.704 54.8487 110.134 55.1235 110.472 55.4829C110.81 55.8423 110.98 56.3709 110.98 57.0544C110.994 57.9072 110.669 58.6119 110.014 59.1616C109.359 59.7253 108.471 60.0002 107.357 60.0002Z" fill="white"/>
<path d="M118.619 60C117.498 60 116.61 59.6617 115.948 58.9781C115.285 58.3016 114.954 57.2516 114.954 55.8421V50.3101H116.554V55.673C116.554 57.6462 117.357 58.6258 118.978 58.6258C119.803 58.6258 120.486 58.3298 121.029 57.7378C121.572 57.1459 121.839 56.3072 121.839 55.2149V50.3171H123.439V59.7745H121.987L121.875 58.0761C121.579 58.6751 121.149 59.1473 120.571 59.4855C120 59.8238 119.345 60 118.619 60Z" fill="white"/>
<path d="M127.984 59.7674V50.31H129.436L129.57 52.1211C129.866 51.501 130.31 51.0006 130.902 50.6342C131.501 50.2677 132.234 50.0845 133.115 50.0845V51.7617H132.678C132.121 51.7617 131.607 51.8604 131.135 52.0577C130.662 52.255 130.289 52.5862 130.007 53.0584C129.725 53.5306 129.584 54.1789 129.584 55.0034V59.7674H127.984Z" fill="white"/>
<path d="M140.698 59.9999C139.796 59.9999 138.992 59.7955 138.295 59.3798C137.597 58.964 137.047 58.3931 136.646 57.6532C136.244 56.9132 136.047 56.0464 136.047 55.0387C136.047 54.045 136.244 53.1782 136.638 52.4382C137.033 51.6983 137.583 51.1134 138.288 50.7046C138.992 50.2888 139.81 50.0845 140.74 50.0845C141.656 50.0845 142.445 50.2888 143.115 50.7046C143.784 51.1204 144.292 51.6631 144.651 52.3325C145.004 53.0091 145.187 53.7279 145.187 54.5031C145.187 54.644 145.187 54.785 145.18 54.9259C145.173 55.0669 145.173 55.2219 145.173 55.4051H137.632C137.667 56.131 137.837 56.73 138.14 57.2092C138.436 57.6884 138.816 58.0478 139.267 58.2874C139.718 58.527 140.197 58.6469 140.705 58.6469C141.367 58.6469 141.917 58.4918 142.361 58.1888C142.805 57.8857 143.129 57.47 143.333 56.9485H144.919C144.665 57.8223 144.179 58.5552 143.46 59.1331C142.734 59.711 141.818 59.9999 140.698 59.9999ZM140.698 51.4375C139.937 51.4375 139.26 51.6701 138.668 52.1352C138.076 52.6003 137.738 53.2769 137.646 54.1648H143.594C143.559 53.3121 143.263 52.6426 142.72 52.1634C142.171 51.6771 141.501 51.4375 140.698 51.4375Z" fill="white"/>
<path d="M153.488 60.0001C152.544 60.0001 151.727 59.7816 151.022 59.3517C150.317 58.9219 149.767 58.3299 149.38 57.5758C148.992 56.8288 148.802 55.9761 148.802 55.0247C148.802 54.0734 148.999 53.2207 149.394 52.4807C149.789 51.7407 150.331 51.1558 151.036 50.7259C151.734 50.3031 152.558 50.0846 153.517 50.0846C154.292 50.0846 154.975 50.2467 155.574 50.5639C156.173 50.881 156.638 51.325 156.963 51.8958V46.0396H158.562V59.7675H157.111L156.956 58.203C156.653 58.6611 156.216 59.0769 155.638 59.4433C155.074 59.8168 154.355 60.0001 153.488 60.0001ZM153.665 58.6047C154.299 58.6047 154.863 58.4567 155.349 58.1537C155.835 57.8577 156.223 57.4419 156.49 56.9063C156.765 56.3708 156.899 55.7506 156.899 55.0388C156.899 54.3271 156.765 53.7069 156.49 53.1713C156.216 52.6357 155.835 52.22 155.349 51.924C154.863 51.628 154.299 51.4729 153.665 51.4729C153.044 51.4729 152.488 51.6209 151.994 51.924C151.508 52.22 151.12 52.6357 150.853 53.1713C150.585 53.7069 150.444 54.3271 150.444 55.0388C150.444 55.7506 150.578 56.3708 150.853 56.9063C151.128 57.4419 151.508 57.8577 151.994 58.1537C152.481 58.4567 153.037 58.6047 153.665 58.6047Z" fill="white"/>
</g>
</svg>
