<svg width="1096" height="2873" viewBox="0 0 1096 2873" fill="none" xmlns="http://www.w3.org/2000/svg">
<path d="M1088 1600H1080V1592C1080 1587.58 1076.42 1584 1072 1584C1067.58 1584 1064 1587.58 1064 1592V1600H1056C1051.58 1600 1048 1603.58 1048 1608C1048 1612.42 1051.58 1616 1056 1616H1064V1624C1064 1628.42 1067.58 1632 1072 1632C1076.42 1632 1080 1628.42 1080 1624V1616H1088C1092.42 1616 1096 1612.42 1096 1608C1096 1603.58 1092.42 1600 1088 1600Z" fill="#F8EBC1"/>
<path d="M311 1982H303V1974C303 1969.58 299.42 1966 295 1966C290.58 1966 287 1969.58 287 1974V1982H279C274.58 1982 271 1985.58 271 1990C271 1994.42 274.58 1998 279 1998H287V2006C287 2010.42 290.58 2014 295 2014C299.42 2014 303 2010.42 303 2006V1998H311C315.42 1998 319 1994.42 319 1990C319 1985.58 315.42 1982 311 1982Z" fill="#F8EBC1"/>
<path d="M1040 2376H1032V2368C1032 2363.58 1028.42 2360 1024 2360C1019.58 2360 1016 2363.58 1016 2368V2376H1008C1003.58 2376 1000 2379.58 1000 2384C1000 2388.42 1003.58 2392 1008 2392H1016V2400C1016 2404.42 1019.58 2408 1024 2408C1028.42 2408 1032 2404.42 1032 2400V2392H1040C1044.42 2392 1048 2388.42 1048 2384C1048 2379.58 1044.42 2376 1040 2376Z" fill="#F8EBC1"/>
<path d="M40 2718H32V2710C32 2705.58 28.42 2702 24 2702C19.58 2702 16 2705.58 16 2710V2718H8C3.58 2718 0 2721.58 0 2726C0 2730.42 3.58 2734 8 2734H16V2742C16 2746.42 19.58 2750 24 2750C28.42 2750 32 2746.42 32 2742V2734H40C44.42 2734 48 2730.42 48 2726C48 2721.58 44.42 2718 40 2718Z" fill="#F8EBC1"/>
<path d="M962 2841H954V2833C954 2828.58 950.42 2825 946 2825C941.58 2825 938 2828.58 938 2833V2841H930C925.58 2841 922 2844.58 922 2849C922 2853.42 925.58 2857 930 2857H938V2865C938 2869.42 941.58 2873 946 2873C950.42 2873 954 2869.42 954 2865V2857H962C966.42 2857 970 2853.42 970 2849C970 2844.58 966.42 2841 962 2841Z" fill="#F8EBC1"/>
<path d="M123 1256H115V1248C115 1243.58 111.42 1240 107 1240C102.58 1240 99 1243.58 99 1248V1256H91C86.58 1256 83 1259.58 83 1264C83 1268.42 86.58 1272 91 1272H99V1280C99 1284.42 102.58 1288 107 1288C111.42 1288 115 1284.42 115 1280V1272H123C127.42 1272 131 1268.42 131 1264C131 1259.58 127.42 1256 123 1256Z" fill="#F8EBC1"/>
<path d="M1064 843H1056V835C1056 830.58 1052.42 827 1048 827C1043.58 827 1040 830.58 1040 835V843H1032C1027.58 843 1024 846.58 1024 851C1024 855.42 1027.58 859 1032 859H1040V867C1040 871.42 1043.58 875 1048 875C1052.42 875 1056 871.42 1056 867V859H1064C1068.42 859 1072 855.42 1072 851C1072 846.58 1068.42 843 1064 843Z" fill="#F8EBC1"/>
<path d="M240 248H232V240C232 235.58 228.42 232 224 232C219.58 232 216 235.58 216 240V248H208C203.58 248 200 251.58 200 256C200 260.42 203.58 264 208 264H216V272C216 276.42 219.58 280 224 280C228.42 280 232 276.42 232 272V264H240C244.42 264 248 260.42 248 256C248 251.58 244.42 248 240 248Z" fill="#F8EBC1"/>
<path d="M804 16H796V8C796 3.58 792.42 0 788 0C783.58 0 780 3.58 780 8V16H772C767.58 16 764 19.58 764 24C764 28.42 767.58 32 772 32H780V40C780 44.42 783.58 48 788 48C792.42 48 796 44.42 796 40V32H804C808.42 32 812 28.42 812 24C812 19.58 808.42 16 804 16Z" fill="#F8EBC1"/>
</svg>
