<?xml version="1.0" encoding="utf-8"?>
<!-- Generator: Adobe Illustrator 23.0.0, SVG Export Plug-In . SVG Version: 6.00 Build 0)  -->
<svg version="1.1" id="Layer_1" xmlns="http://www.w3.org/2000/svg" xmlns:xlink="http://www.w3.org/1999/xlink" x="0px" y="0px"
	 viewBox="0 0 1611.7 2962.8" style="enable-background:new 0 0 1611.7 2962.8;" xml:space="preserve">
<style type="text/css">
	.st0{fill:#F8EBC1;}
</style>
<path class="st0" d="M1345.9,1644.9h-8v-8c0-4.4-3.6-8-8-8s-8,3.6-8,8v8h-8c-4.4,0-8,3.6-8,8s3.6,8,8,8h8v8c0,4.4,3.6,8,8,8
	s8-3.6,8-8v-8h8c4.4,0,8-3.6,8-8S1350.3,1644.9,1345.9,1644.9z"/>
<path class="st0" d="M568.9,2026.9h-8v-8c0-4.4-3.6-8-8-8c-4.4,0-8,3.6-8,8v8h-8c-4.4,0-8,3.6-8,8s3.6,8,8,8h8v8c0,4.4,3.6,8,8,8
	c4.4,0,8-3.6,8-8v-8h8c4.4,0,8-3.6,8-8S573.3,2026.9,568.9,2026.9z"/>
<path class="st0" d="M1297.9,2420.9h-8v-8c0-4.4-3.6-8-8-8c-4.4,0-8,3.6-8,8v8h-8c-4.4,0-8,3.6-8,8s3.6,8,8,8h8v8c0,4.4,3.6,8,8,8
	c4.4,0,8-3.6,8-8v-8h8c4.4,0,8-3.6,8-8S1302.3,2420.9,1297.9,2420.9z"/>
<path class="st0" d="M297.9,2762.9h-8v-8c0-4.4-3.6-8-8-8c-4.4,0-8,3.6-8,8v8h-8c-4.4,0-8,3.6-8,8s3.6,8,8,8h8v8c0,4.4,3.6,8,8,8
	c4.4,0,8-3.6,8-8v-8h8c4.4,0,8-3.6,8-8S302.3,2762.9,297.9,2762.9z"/>
<path class="st0" d="M1219.9,2885.9h-8v-8c0-4.4-3.6-8-8-8c-4.4,0-8,3.6-8,8v8h-8c-4.4,0-8,3.6-8,8s3.6,8,8,8h8v8c0,4.4,3.6,8,8,8
	c4.4,0,8-3.6,8-8v-8h8c4.4,0,8-3.6,8-8S1224.3,2885.9,1219.9,2885.9z"/>
<path class="st0" d="M380.9,1300.9h-8v-8c0-4.4-3.6-8-8-8c-4.4,0-8,3.6-8,8v8h-8c-4.4,0-8,3.6-8,8s3.6,8,8,8h8v8c0,4.4,3.6,8,8,8
	c4.4,0,8-3.6,8-8v-8h8c4.4,0,8-3.6,8-8S385.3,1300.9,380.9,1300.9z"/>
<path class="st0" d="M1321.9,887.9h-8v-8c0-4.4-3.6-8-8-8s-8,3.6-8,8v8h-8c-4.4,0-8,3.6-8,8s3.6,8,8,8h8v8c0,4.4,3.6,8,8,8
	s8-3.6,8-8v-8h8c4.4,0,8-3.6,8-8S1326.3,887.9,1321.9,887.9z"/>
<path class="st0" d="M497.9,292.9h-8v-8c0-4.4-3.6-8-8-8c-4.4,0-8,3.6-8,8v8h-8c-4.4,0-8,3.6-8,8s3.6,8,8,8h8v8c0,4.4,3.6,8,8,8
	c4.4,0,8-3.6,8-8v-8h8c4.4,0,8-3.6,8-8S502.3,292.9,497.9,292.9z"/>
<path class="st0" d="M1061.9,60.9h-8v-8c0-4.4-3.6-8-8-8c-4.4,0-8,3.6-8,8v8h-8c-4.4,0-8,3.6-8,8c0,4.4,3.6,8,8,8h8v8
	c0,4.4,3.6,8,8,8c4.4,0,8-3.6,8-8v-8h8c4.4,0,8-3.6,8-8C1069.9,64.5,1066.3,60.9,1061.9,60.9z"/>
</svg>
